<svg xmlns="http://www.w3.org/2000/svg" viewBox="0 0 164 164"><defs><style>.cls-1,.cls-2{fill:#8bc53f;}.cls-1{fill-rule:evenodd;}.cls-2{opacity:0;}</style></defs><title>Asset 17</title><g id="Layer_2" data-name="Layer 2"><g id="home"><path class="cls-1" d="M115.46,37v.11a179.47,179.47,0,0,0-32.25-2.16,203,203,0,0,0-36.74,3.47h0C36.94-11,129.37-4.15,115.46,37Zm11.34,66.35a5,5,0,0,1,3.45-.82l11.82,3.83c2.55.84,5,2.09,4.59,5.37a26.83,26.83,0,0,1-1.06,3.83l-.24.84c-.92,3.13-1.73,2.56-4.58,3.41,4.63,11.88,11,22.77,11.09,35.9,0,2.7-1.93,4.13-5.44,4.59h-6.12c1.81-6.81,1.28-14.39-1.28-22.62-.47,8.8-.88,17.39-3.17,22.1l-6.31.07c-.39-2.94-.73-5.22-1.81-6.38l-2.36,5.11-10.21-2.31A40.39,40.39,0,0,0,125,139c-4.48,6.59-8.93,11.26-13.57,13.72-2.22,1.61-4,1.71-5.11.22-.84-1.06-.58-1.57-.15-2.82a16.74,16.74,0,0,1,2.76-4.77c-2.56,2-3.83,2.29-5.29,3.34-3.91,3-9.53,1.39-9.58-3.66,0-3.26,2.23-3.83,4.76-5.74l4.34-2.91a73,73,0,0,1-13.62,4.42c-5.1,1-5.1.76-9.1-2.29-5.38-4.11-9.17-8.4-.56-9.05,16.07-2.31,31.09-3.83,45.09-15a4.12,4.12,0,0,1-1.61-3.2c0-1.76,2-6.85,3.44-7.9Zm20.94-40.26L136.06,95c-1.77,6.71,7,8.93,9.31,2.55l11.49-32c1.28-4.58-6.48-7.83-9.14-2.4ZM42.38,121.88a3.31,3.31,0,1,1-3.3,3.31h0A3.31,3.31,0,0,1,42.38,121.88ZM62.53,85.45c-5.52,3.83-11.3,5.32-17,6.38l8.05,22.83h51a50.2,50.2,0,0,0,8.68-3.93L118.5,92c-5-.51-9.72-.92-13.4-2.84a16.13,16.13,0,0,1-4.46-4.33l-.25-3.76A22.69,22.69,0,0,0,104,77.31c2.42-3,3.36-6.15,4.52-10.12.24-.83.47-1.67.75-2.55,2.28-.23,4.81-2.8,6-6a21.63,21.63,0,0,0,1.28-5.55,8.18,8.18,0,0,0-1.09-4.76,2.9,2.9,0,0,0-2.37-1.64,18.92,18.92,0,0,1,.91-5,177.57,177.57,0,0,0-30.82-1.91A196.45,196.45,0,0,0,47.45,43.2l1,4.94a9.28,9.28,0,0,0-1.2,5.55,19.18,19.18,0,0,0,1.83,6.24c1.28,2.37,3.39,4,5.4,4,.19.57.42,1.18.61,1.78,1.62,4.8,2.83,8.43,5.77,11.88a21.32,21.32,0,0,0,2.75,2.79l-.23,4.24C63.12,84.93,62.84,85.19,62.53,85.45Zm-26.3,8.09C13.93,98.62,11.9,122.29,7,141.06H31.74v-21.6a4.82,4.82,0,0,1,4.81-4.81h5.11C41.45,106.29,37.29,97.5,36.23,93.54ZM71.68,23.17H91.36a.84.84,0,0,1,.84.83v4.54a.85.85,0,0,1-.84.84H71.68a.85.85,0,0,1-.84-.84V24A.84.84,0,0,1,71.68,23.17ZM97.46,82.53C92.2,86,89,88,82.15,87.79s-10.08-2.34-15.32-5.68C66.44,104.2,98,105.51,97.46,82.53Zm7.87-16c.28-1,.61-2,1-3.21a1,1,0,0,1,1.16-.8c1.54.27,3.61-2,4.68-4.67a20.3,20.3,0,0,0,1.28-5,6.4,6.4,0,0,0-1-3.59c-.41-.78-1.56-.32-2.43-1.07-4.4,11.7-42.87,17-58.62.88a6.94,6.94,0,0,0-1,4.24A17.47,17.47,0,0,0,52,58.86c1,1.91,2.69,3.21,3.95,2.88a1.05,1.05,0,0,1,1.28.65c.37,1,.61,1.83.89,2.55,8.16,24,39.17,25.83,47.22,1.5Z"/><rect class="cls-2" width="164" height="164"/></g></g></svg>