<svg xmlns="http://www.w3.org/2000/svg" xmlns:xlink="http://www.w3.org/1999/xlink" viewBox="0 0 4808.24 4808.24"><defs><style>.cls-1,.cls-3{fill:none;}.cls-2{clip-path:url(#clip-path);}.cls-3{stroke:#fff;stroke-miterlimit:10;stroke-width:11.1px;}.cls-4{fill:#fff;}</style><clipPath id="clip-path" transform="translate(1720.86 1949.08)"><rect class="cls-1" width="1368.94" height="884.41"/></clipPath></defs><title>Asset 12</title><g id="Layer_2" data-name="Layer 2"><g id="home"><g class="cls-2"><polygon class="cls-3" points="1453.27 4468.87 3349.45 4468.87 3184.6 4304.02 1618.12 4304.02 1453.27 4468.87"/><polygon class="cls-3" points="4310.2 3187.7 4475.05 3352.01 4475.05 1447.08 4310.2 1611.93 4310.2 3187.7"/><polygon class="cls-3" points="3363.67 331.13 1444.28 331.13 1609.66 495.98 3198.29 495.98 3363.67 331.13"/><polygon class="cls-3" points="3032.9 660.83 1775.09 660.83 1940.48 825.68 2867.56 825.68 3032.9 660.83"/><polygon class="cls-3" points="3980.5 2859.07 4145.35 3023.38 4145.35 1776.78 3980.5 1941.63 3980.5 2859.07"/><polygon class="cls-3" points="1782.96 4139.17 3019.75 4139.17 2854.9 3974.32 1947.82 3974.32 1782.96 4139.17"/><path class="cls-3" d="M-605.95-1477.25c213,213,830.55,830.38,1052.24,1052l.25-.29L-605.58-1477.63Z" transform="translate(1720.86 1949.08)"/><polygon class="cls-3" points="1776.41 1913.32 853.62 990.53 620.52 990.53 1659.7 2029.7 1776.41 1913.32"/><path class="cls-3" d="M2917,1565.18c2.63,2.64,162.27,161.74,164.85,164.32V-829.64L2917-664.79Z" transform="translate(1720.86 1949.08)"/><path class="cls-4" d="M3081.22-1062.12v-.87l0-508.48v-.27l.2-.19,2.06-2.06-.2.46v-233.1l1.13.47-2.06,2.06-1.13,1.12v-140.55l.65.65H2202.89l.46-.19q-219.82,223.68-441.29,445.75-221.31,222.22-443.39,443.66Q874.73-610.54,431.27-167l-.44.44-.43-.44-1155-1155,1-.43v233.1l-.17-.42L314.7-51.26l.41.41-.41.42L-75.67,339.93l-.41.41-.41-.41-1472.3-1472.34-.17-.16v-646.66h642.54l.16.16L446.91-425.88l-.71,0,58.33-58.16,29.18-29.09,14.6-14.54,7.3-7.27,3.65-3.63c1.23-1.21,2.4-2.41,3.77-3.71l-.11.82q-349.84-350.57-700.53-700.3Q-487.92-1591.91-837-1943.18l.35.15h-878.61l.49-.49v875.27l-.14-.34,25,25,.34.34-.34.34-.82.83v-.68l307.61,307.61.14.14v.86l-.14-.34L-75.8,572.67l-.32-.14h.23l.13.14L60.94,709.41l.32.32-.32.32L-1089.72,1860.7l-.31-.75h233.1l-.31.13L176.92,825.94l.29-.29.3.29,390.36,390.33.12.12v.39l-.12.12L-594.58,2379.37l-.12.11h-.21l.28-.11L-904.3,2689l-.11.11h-644.37V2044.82l.11-.11L-197.41,693.78v.5l-116.7-116.7h.49L-1383.31,1647.23l.1-.24v.18l-.1.1L-1715.07,1979l.09-.23v874.86l-.32-.32h880.8l-.23.1,498.68-498.67.22.52h-2.48l.53-.52,164.85-164.85.09-.09H-171l-.22.09L-6.36,2025l.22.52H-8.56L-8,2025l571-570.87.21-.2.2.2.79.79h-.42l237.8-237.8v.41l-.75-.79-.19-.2.2-.2,136.91-136.87.2-.2.21.2L2095,2236.38l-.46.2v-233.1l.08.19L1054.28,963.33l-.17-.18.17-.18,97.57-97.54,24.39-24.38c8.13-8.13,16.25-16.27,24.45-24.33l49.08-48.47,49.07-48.47c4.08-4,8.21-8,12.24-12.15l12.14-12.25,24.26-24.52,97-98,.17-.18.18.17,1472.26,1472,.07.07V2689H2273.07l-.06-.06-309.67-309.68.15.06h-.13l-.06-.06L918.16,1334h.27L801.76,1450.7v-.26l904.52,904.37-.12,0h.11l0,0,164.85,164.86-.12-.05h.11l0,.05L2205,2853.49l-.12,0h879l-.15.16V1978.75l0,.1L1307.67,202.7l-.09-.09.09-.08L2468.85-958.63l.07.18h-233.1l.07,0L1191.27,86.12l-.06.06-.06-.06L801.07-304l-.05-.06.05-.05L1974.49-1477.3v.09l-.37-.37,0-.05,0,0,301.06-301,0,0H2917v646h0L1565.8,218.41v0l116.76,116.34h0v0l.2.21h0l576.9-576.76,0,0v1.26h0l164.85-164.85h0v-1.23h0l164.86-164.81h0v1.21h0L2754.19-735.1h0v-1.81h0L2917-899.7h0v1.81h0Zm1.23-1.23-.62.61L2917-897.89h0v-1.81h0L2754.2-736.91h0v1.81h0L2589.35-570.24h0v-1.21h0L2424.5-406.63h0v1.23h0L2259.65-240.54l0,0v-1.26h0L1682.76,335v0l0,0-.2-.2h0v0h0L1565.77,218.41h0l0,0L2917-1132.83v-645.85l.05,0H2275.26l-301.05,301.06v-.09l.37.37,0,0,0,0L801.19-304v-.11L1191.27,86h-.12L2235.75-958.62l0,0h233.39l-.18.18L1307.84,202.7v-.17L3084,1978.64l0,0v875.08H2204.84l-.05-.05L1871,2519.91l.12.05H1871l0-.05-164.86-164.85.13.05h-.11l-.06-.05L801.49,1450.7l-.13-.13.13-.13,116.67-116.68.14-.13.13.13L1963.59,2378.94l-.14-.06h.12l.06.06,309.68,309.67-.15-.06H2917l-.21.22V2045l.06.16-1472.29-1472h.35l-97.05,98.05-24.26,24.52L1311.44,708c-4,4.1-8.17,8.1-12.24,12.15l-49.08,48.47L1201,817.08c-8.2,8.06-16.32,16.2-24.44,24.33l-24.4,24.38-97.56,97.54V963L2095,2003.29l.08.08v233.86l-.46-.46L937.71,1079.9h.41L801.21,1216.77v-.41l.75.79.19.2-.2.2-237.79,237.8-.21.21-.21-.21-.78-.78h.41l-571,570.88-.21-.52h2.42l-.52.52L-170.78,2190.3l-.09.09h-1.85l.21-.09-164.85,164.85-.22-.52h2.48l-.53.52-498.66,498.68-.09.09h-881.25V1978.61l.09-.1,331.76-331.72-.1.24v-.18l.1-.1L-314.13,577.06l.25-.25.24.24,116.73,116.73.25.25-.25.25-1351.22,1351,.11-.26v643.78l-.38-.38h643.82l-.27.11,309.66-309.67.12-.12h.21l-.28.12L567.29,1216.31l-.12.3v0l.12.3L176.92,826.54h.59L-856.63,1860.69l-.12.13h-234.34l.75-.74L60.3,709.41v.64L-76.4,573.31l.32.13h-.23l-.13-.13L-1383.89-733.86l-.14-.13v-.86l.14.33-307.61-307.6-.34-.34.34-.34.82-.83v.68l-25-25-.14-.14v-876h879.31l.14.14q348.71,351.72,699.47,701.38Q213.45-892.42,563.66-542.22l.36.36-.47.46L446.88-425.11l-.35.34-.36-.37L-907-1778.3l.38.16H-1548.4l.55-.55v645.88l-.17-.39L-75.67,339.11h-.82L313.87-51.26v.83L-724.57-1088.85l-.18-.18v-234.8l1,1,1155,1155h-.88q442.5-444.55,887.38-886.73,222-221.57,443.38-443.67T2202.43-1944l.19-.19h879.87v139.62l-1.12-.46,2.06-2.06,1.12-1.13v235l-.19.19-2.06,2.06.19-.47Z" transform="translate(1720.86 1949.08)"/><polygon class="cls-3" points="1284.29 4637.84 1119.44 4802.69 3683.28 4802.69 3518.43 4637.84 1284.29 4637.84"/><polygon class="cls-3" points="3524.9 170.4 3690.28 5.55 1117.67 5.55 1283.06 170.4 3524.9 170.4"/><path class="cls-3" d="M-1548.4,1563.08V-657.21c-3.87-3.87-163-163-166.91-166.91V1729.45c2.62-2.63,162.27-161.73,164.85-164.31Z" transform="translate(1720.86 1949.08)"/><path class="cls-3" d="M2259.64,2025.24v494.55h494.55V2025.24Zm329.7,329.7H2424.49V2190.09h164.85Z" transform="translate(1720.86 1949.08)"/><path class="cls-3" d="M-1383.55-1617.95v494.55H-889v-494.55Zm329.7,329.7H-1218.7V-1453.1h164.85Z" transform="translate(1720.86 1949.08)"/><polygon class="cls-3" points="337.31 1456.72 337.31 3347.85 502.16 3183.53 502.16 1621.58 337.31 1456.72"/><polygon class="cls-3" points="667.01 1786.43 667.01 3019.18 831.86 2854.86 831.86 1951.28 667.01 1786.43"/><path class="cls-3" d="M2259.64-1617.95v494.55h494.55v-494.55Zm327.64,329.7H2424.49V-1453.1h162.79Z" transform="translate(1720.86 1949.08)"/><polygon class="cls-3" points="3029.52 2892.61 3946.38 3809.47 4179.48 3809.47 3146.07 2776.06 3029.52 2892.61"/><rect class="cls-3" x="587.48" y="1608" width="193.62" height="193.62" transform="translate(715.8 2932.27) rotate(-45)"/><rect class="cls-3" x="1834.16" y="351.02" width="193.62" height="193.62" transform="translate(1969.76 3445.64) rotate(-45)"/><rect class="cls-3" x="577.18" y="-895.66" width="193.62" height="193.62" transform="translate(2483.14 2191.68) rotate(-45)"/><rect class="cls-3" x="-669.5" y="361.32" width="193.62" height="193.62" transform="translate(1229.18 1678.31) rotate(-45)"/><polygon class="cls-3" points="2895.66 1777.73 3815.65 857.74 3815.65 624.64 2778.91 1661.39 2895.66 1777.73"/><polygon class="cls-3" points="1913.9 3033.31 996.71 3950.5 996.71 4183.6 2030.45 3149.86 1913.9 3033.31"/><path class="cls-3" d="M-1383.55,2025.24v494.55H-889V2025.24Zm329.7,329.7H-1218.7V2190.09h164.85Z" transform="translate(1720.86 1949.08)"/></g></g></g></svg>