<svg xmlns="http://www.w3.org/2000/svg" viewBox="0 0 164 164"><defs><style>.cls-1,.cls-2,.cls-3,.cls-4,.cls-5,.cls-6,.cls-7{fill-rule:evenodd;}.cls-2{fill:#c8e4a5;}.cls-3{fill:#b8dc8a;}.cls-4{fill:#c0dabc;}.cls-5{fill:#a9cda3;}.cls-6,.cls-8{fill:#8bc53f;}.cls-7{fill:#509944;}.cls-8{opacity:0;}</style></defs><title>Asset 18</title><g id="Layer_2" data-name="Layer 2"><g id="home"><path class="cls-1" d="M113,21.7h39.27A4.33,4.33,0,0,1,156.57,26V53.69A4.36,4.36,0,0,1,152.24,58H110.49V24.18h-21v10.1l14.38,16.34a2.77,2.77,0,0,1-2.08,4.61H62.23a2.79,2.79,0,0,1-1.87-4.85L75.11,34.26V24.18H53.84V58H11.33A4.36,4.36,0,0,1,7,53.69V26a4.33,4.33,0,0,1,4.33-4.33ZM11.33,83.37H72.55V78.69h0V76h5.61v2.7H75.25v4.68h13.5V78.69H85.84V76h5.61v2.7h0v4.68h61.22A4.36,4.36,0,0,1,157,87.7V138a4.36,4.36,0,0,1-4.33,4.33H11.33A4.36,4.36,0,0,1,7,138V87.7a4.34,4.34,0,0,1,4.33-4.33Z"/><path class="cls-2" d="M11.33,85.85H152.67a1.85,1.85,0,0,1,1.85,1.85V138a1.86,1.86,0,0,1-1.85,1.85H11.33A1.86,1.86,0,0,1,9.48,138V87.7A1.85,1.85,0,0,1,11.33,85.85Z"/><path class="cls-3" d="M13.32,87.84H150.68a1.85,1.85,0,0,1,1.85,1.84V136a1.85,1.85,0,0,1-1.85,1.84H13.32A1.85,1.85,0,0,1,11.47,136V89.68A1.85,1.85,0,0,1,13.32,87.84Z"/><path class="cls-4" d="M77.89,24.46H86.7V35.32l15.08,17.14H62.23L77.89,35.32Z"/><path class="cls-1" d="M52.52,85.78v55H50.2v-55Z"/><path class="cls-1" d="M113.8,85.76v54.3h-2.32V102.6H52v-2.39h59.53V85.76Z"/><path class="cls-1" d="M69.85,109.47H94.24a3.26,3.26,0,0,1,3.25,3.25V132a3.28,3.28,0,0,1-3.25,3.25H69.85A3.26,3.26,0,0,1,66.6,132V112.72A3.26,3.26,0,0,1,69.85,109.47Z"/><path class="cls-5" d="M69.85,112H94.24a.78.78,0,0,1,.77.77V132a.77.77,0,0,1-.77.76H69.85a.76.76,0,0,1-.77-.76V112.72A.77.77,0,0,1,69.85,112Z"/><path class="cls-2" d="M11.33,24.18h40V55.54h-40a1.87,1.87,0,0,1-1.85-1.85V26A1.85,1.85,0,0,1,11.33,24.18Z"/><path class="cls-3" d="M13.32,26.17H49.37V53.55h-36a1.85,1.85,0,0,1-1.85-1.85V28A1.85,1.85,0,0,1,13.32,26.17Z"/><path class="cls-2" d="M152.24,24.18H113V55.54h39.27a1.86,1.86,0,0,0,1.85-1.85V26A1.85,1.85,0,0,0,152.24,24.18Z"/><path class="cls-3" d="M150.25,26.17H115V53.55h35.29a1.85,1.85,0,0,0,1.85-1.85V28A1.85,1.85,0,0,0,150.25,26.17Z"/><path class="cls-1" d="M127.94,29.13a2,2,0,1,0,0,4.09h0a2,2,0,1,0,0-4.09Zm-92.31,0a2,2,0,1,1,0,4.09h0a2,2,0,0,1,0-4.09Zm7.49,61.93a2.05,2.05,0,0,1,2.05,2h0a2,2,0,1,1-2.05-2Zm77.23,0a2,2,0,1,1,.07,4.09h-.07a2,2,0,0,1,0-4.09Z"/><path d="M74.3,90.1a2.63,2.63,0,1,1-2.64,2.63A2.63,2.63,0,0,1,74.3,90.1Zm15.4,0a2.63,2.63,0,1,1-2.63,2.63A2.64,2.64,0,0,1,89.7,90.1Z"/><path class="cls-6" d="M89.7,91.09a1.63,1.63,0,1,1-1.64,1.64A1.63,1.63,0,0,1,89.7,91.09Z"/><path d="M82,90.1a2.63,2.63,0,1,1-2.64,2.63A2.63,2.63,0,0,1,82,90.1Z"/><path class="cls-7" d="M82,91.09a1.63,1.63,0,1,1-1.64,1.64A1.63,1.63,0,0,1,82,91.09Z"/><rect class="cls-8" width="164" height="164"/></g></g></svg>