<svg xmlns="http://www.w3.org/2000/svg" viewBox="0 0 115.9 164.05"><defs><style>.cls-1{fill:#8bc53f;}.cls-2{font-size:28px;font-family:BourbonGrotesque-Regular, Bourbon Grotesque;}.cls-2,.cls-3{fill:#fff;}.cls-3{font-size:7.72px;font-family:GothamMedium, Gotham Medium;}</style></defs><title>Asset 20</title><g id="Layer_2" data-name="Layer 2"><g id="home"><polygon class="cls-1" points="36.78 105.14 81.45 105.14 77.56 101.25 40.66 101.25 36.78 105.14"/><polygon class="cls-1" points="104.08 74.96 107.96 78.83 107.96 33.96 104.08 37.84 104.08 74.96"/><polygon class="cls-1" points="81.78 7.67 36.57 7.67 40.47 11.55 77.89 11.55 81.78 7.67"/><polygon class="cls-1" points="73.99 15.44 44.36 15.44 48.26 19.32 70.09 19.32 73.99 15.44"/><polygon class="cls-1" points="96.31 67.22 100.19 71.09 100.19 41.72 96.31 45.61 96.31 67.22"/><polygon class="cls-1" points="44.55 97.37 73.68 97.37 69.8 93.49 48.43 93.49 44.55 97.37"/><path class="cls-1" d="M28.81,11,53.6,35.76h0L28.82,11Z"/><polygon class="cls-1" points="44.39 44.94 22.66 23.2 17.16 23.2 41.64 47.68 44.39 44.94"/><path class="cls-1" d="M111.8,82.65l3.88,3.87V26.24l-3.88,3.88Z"/><path class="cls-1" d="M59.2,47.81l-2.74,2.74-6,6,8.71,8.72,8.72-8.72Zm0,11.94L56,56.52,59.2,53.3l3.23,3.22Z"/><path class="cls-1" d="M115.68,20.75v-12l0,0V3.22l0,0V0H95C81.75,13.46,66.57,28.44,53.23,41.84L26,14.63v5.49L50.49,44.58l-3.23,3.23-6,6L6.61,19.1V3.88H21.73L53.6,35.76,56.35,33c-10.22-10.24-22.88-22.84-33-33H2.68V20.62l.59.59,0,0c1.8,1.79,5.43,5.43,7.24,7.24v0l30.8,30.79h0l3.22,3.22L17.41,89.6H22.9L47.26,65.24l9.19,9.2h0c-.84.85-25.79,25.8-27.38,27.38h0l-7.29,7.3H6.61V94L38.44,62.13l-2.75-2.75c-7.08,7.08-18.23,18.24-25.2,25.2h0L3.25,91.82l-.57.57V113H23.43l11.74-11.75h0L39,97.37h0l3.88-3.88h0L56.35,80l0,0,5.6-5.6,0,0,3.23-3.23L92.43,98.47V93L67.92,68.47l3.23-3.23,0,0,2.74-2.74,0,0,3.22-3.22L111.8,94v15.17H96.63l-7.29-7.3h0L64.72,77.2S62,79.93,62,80l21.3,21.3h0c.4.4,3.59,3.58,3.89,3.89h0L95,113h20.71V92.39L73.89,50.55c1-1,25.72-25.72,27.35-27.35H95.75L71.14,47.81,62,38.62c6.75-6.76,21-21,27.64-27.64h0l7.09-7.09H111.8V19.1C106.93,24,85.24,45.65,80,50.93l2.75,2.74h0L96.31,40.09v0l3.88-3.88v0l3.89-3.88v0L108,28.47v0l3.84-3.83v0ZM68.39,50.56l1.38,1.37,4.59,4.6c-4.85,4.86-10.3,10.3-15.16,15.16L44,56.53,59.2,41.37C61.93,44.1,65.67,47.83,68.39,50.56Z"/><path class="cls-1" d="M59.2,47.81l-2.74,2.74-6,6,8.71,8.72,8.72-8.72Zm0,11.94L56,56.52,59.2,53.3l3.23,3.22Z"/><polygon class="cls-1" points="32.8 109.12 28.92 113 89.31 113 85.43 109.12 32.8 109.12"/><polygon class="cls-1" points="85.58 3.88 89.47 0 28.88 0 32.77 3.88 85.58 3.88"/><path class="cls-1" d="M6.61,82.6V30.3L2.68,26.37V86.52l3.88-3.87Z"/><path class="cls-1" d="M96.31,93.49v11.65H108V93.49Zm7.77,7.76h-3.89V97.37h3.89Z"/><path class="cls-1" d="M10.49,7.67V19.32H22.14V7.67Zm7.77,7.77H14.38V11.55h3.88Z"/><polygon class="cls-1" points="10.49 34.18 10.49 78.73 14.38 74.86 14.38 38.07 10.49 34.18"/><polygon class="cls-1" points="18.26 41.95 18.26 70.99 22.14 67.12 22.14 45.83 18.26 41.95"/><path class="cls-1" d="M96.31,7.67V19.32H108V7.67ZM104,15.44h-3.84V11.55H104Z"/><polygon class="cls-1" points="73.91 68.01 95.51 89.6 101 89.6 76.66 65.26 73.91 68.01"/><path class="cls-1" d="M59.2,47.81l-2.74,2.74-6,6,8.71,8.72,8.72-8.72Zm0,11.94L56,56.52,59.2,53.3l3.23,3.22Z"/><rect class="cls-1" x="56.92" y="83.66" width="4.56" height="4.56" transform="translate(-43.43 67.03) rotate(-45)"/><rect class="cls-1" x="86.29" y="54.05" width="4.56" height="4.56" transform="translate(-13.89 79.13) rotate(-45)"/><rect class="cls-1" x="56.68" y="24.68" width="4.56" height="4.56" transform="translate(-1.8 49.59) rotate(-45)"/><rect class="cls-1" x="27.31" y="54.29" width="4.56" height="4.56" transform="translate(-31.34 37.5) rotate(-45)"/><polygon class="cls-1" points="70.76 41.74 92.43 20.07 92.43 14.58 68.01 39 70.76 41.74"/><polygon class="cls-1" points="47.63 71.32 26.03 92.93 26.03 98.42 50.38 74.07 47.63 71.32"/><path class="cls-1" d="M10.49,93.49v11.65H22.14V93.49Zm7.77,7.76H14.38V97.37h3.88Z"/><text class="cls-2" transform="translate(2.16 148.6) rotate(-0.02)">Xlbox</text><text class="cls-3" transform="translate(2.16 161.73) rotate(-0.02)" style="
    letter-spacing: 3.9;
">SERVICES GMBH</text></g></g></svg>