<svg xmlns="http://www.w3.org/2000/svg" viewBox="0 0 323.17 323.04"><defs><style>.cls-1{fill:#090807;}</style></defs><title>Asset 4</title><g id="Layer_2" data-name="Layer 2"><g id="home"><polygon class="cls-1" points="97.49 300.56 225.18 300.56 214.07 289.45 108.59 289.45 97.49 300.56"/><polygon class="cls-1" points="289.87 214.28 300.97 225.35 300.97 97.07 289.87 108.17 289.87 214.28"/><polygon class="cls-1" points="226.13 21.92 96.88 21.92 108.02 33.02 215 33.02 226.13 21.92"/><polygon class="cls-1" points="203.86 44.13 119.16 44.13 130.3 55.23 192.72 55.23 203.86 44.13"/><polygon class="cls-1" points="267.67 192.15 278.77 203.22 278.77 119.27 267.67 130.37 267.67 192.15"/><polygon class="cls-1" points="119.69 278.35 202.97 278.35 191.87 267.25 130.79 267.25 119.69 278.35"/><path class="cls-1" d="M74.7,31.4l70.86,70.84,0,0L74.73,31.37Z"/><polygon class="cls-1" points="119.25 128.47 57.11 66.33 41.41 66.33 111.39 136.31 119.25 128.47"/><path class="cls-1" d="M311.93,236.27,323,247.34V75l-11.11,11.1Z"/><path class="cls-1" d="M161.59,136.67l-7.85,7.85-17.07,17.07,24.92,24.91,24.91-24.91Zm0,34.14-9.22-9.22,9.22-9.22,9.22,9.22Z"/><path class="cls-1" d="M323,59.31V25.05l.13-.13V9.22l-.13.14V0H263.85C226,38.48,182.64,81.3,144.52,119.6L66.74,41.83V57.52l69.93,69.93-9.22,9.22-17.07,17.07L11.24,54.59V11.1H54.46l91.12,91.12,7.86-7.83C124.23,65.11,88,29.11,59.16,0H0V58.94l1.68,1.68-.05.06L22.34,81.39v0l88,88h0l9.21,9.21L42.11,256.15H57.8l69.64-69.64,26.29,26.29h0L75.45,291.08h0L54.59,311.93H11.24V268.58l91-91-7.86-7.86c-20.23,20.23-52.12,52.14-72,72h0L1.63,262.5,0,264.12V323H59.31l33.58-33.58h-.11l11.1-11.11H104l11.1-11.1H115l38.45-38.44,0,.05,16-16-.05,0,9.22-9.22,77.9,77.9V265.79l-70.06-70.06,9.22-9.21.05,0,7.85-7.84,0-.05,9.21-9.21,99.14,99.12v43.35H268.58l-20.85-20.85h0L177.34,220.7l-7.85,7.86,60.91,60.9h0l11.1,11.1h0L264,323h59.19V264.12l-119.6-119.6,78.19-78.19H266.07l-70.35,70.34L169.45,110.4l79-79,0,0L268.72,11.1h43.21V54.59C298,68.5,236,130.51,221,145.58l7.86,7.84h0l38.85-38.84v.09l11.1-11.1v-.09l11.1-11.09v.08L301,81.37v-.12l11-11v.12ZM187.86,144.53l3.92,3.93,13.15,13.14-43.34,43.34L118.25,161.6c14-14,29.31-29.32,43.34-43.33Z"/><path class="cls-1" d="M161.59,136.67l-7.85,7.85-17.07,17.07,24.92,24.91,24.91-24.91Zm0,34.14-9.22-9.22,9.22-9.22,9.22,9.22Z"/><polygon class="cls-1" points="86.11 311.93 75.01 323.04 247.66 323.04 236.55 311.93 86.11 311.93"/><polygon class="cls-1" points="236.99 11.1 248.13 0 74.89 0 86.03 11.1 236.99 11.1"/><path class="cls-1" d="M11.24,236.13V86.62L0,75.38v172l11.1-11.07Z"/><path class="cls-1" d="M267.67,267.25v33.31H301V267.25Zm22.2,22.21h-11.1V278.35h11.1Z"/><path class="cls-1" d="M22.34,21.92V55.23h33.3V21.92Zm22.2,22.21H33.44V33h11.1Z"/><polygon class="cls-1" points="22.34 97.72 22.34 225.07 33.44 214 33.44 108.82 22.34 97.72"/><polygon class="cls-1" points="44.54 119.92 44.54 202.94 55.64 191.87 55.64 131.02 44.54 119.92"/><path class="cls-1" d="M267.67,21.92V55.23H301V21.92Zm22.06,22.21h-11V33h11Z"/><polygon class="cls-1" points="203.63 194.41 265.37 256.15 281.07 256.15 211.48 186.56 203.63 194.41"/><path class="cls-1" d="M161.59,136.67l-7.85,7.85-17.07,17.07,24.92,24.91,24.91-24.91Zm0,34.14-9.22-9.22,9.22-9.22,9.22,9.22Z"/><rect class="cls-1" x="155.07" y="239.16" width="13.04" height="13.04" transform="translate(-126.39 186.22) rotate(-45)"/><rect class="cls-1" x="239.02" y="154.51" width="13.04" height="13.04" transform="translate(-41.95 220.79) rotate(-45)"/><rect class="cls-1" x="154.37" y="70.56" width="13.04" height="13.04" transform="translate(-7.38 136.34) rotate(-45)"/><rect class="cls-1" x="70.42" y="155.21" width="13.04" height="13.04" transform="translate(-91.82 101.77) rotate(-45)"/><polygon class="cls-1" points="194.62 119.34 256.57 57.39 256.57 41.69 186.75 111.5 194.62 119.34"/><polygon class="cls-1" points="128.51 203.89 66.74 265.65 66.74 281.35 136.35 211.74 128.51 203.89"/><path class="cls-1" d="M22.34,267.25v33.31h33.3V267.25Zm22.2,22.21H33.44V278.35h11.1Z"/></g></g></svg>