<svg xmlns="http://www.w3.org/2000/svg" viewBox="0 0 148.49 37.04"><defs><style>.cls-1{fill:#8bc53f;}.cls-2{font-size:24.86px;font-family:BourbonGrotesque-Regular, Bourbon Grotesque;}.cls-2,.cls-3{fill:#fff;}.cls-3{font-size:6.85px;font-family:GothamMedium, Gotham Medium;}</style></defs><title>Asset 1</title><g id="Layer_2" data-name="Layer 2"><g id="home"><polygon class="cls-1" points="11.18 34.46 25.82 34.46 24.54 33.19 12.45 33.19 11.18 34.46"/><polygon class="cls-1" points="33.23 24.57 34.51 25.84 34.51 11.13 33.23 12.4 33.23 24.57"/><polygon class="cls-1" points="25.93 2.51 11.11 2.51 12.38 3.79 24.65 3.79 25.93 2.51"/><polygon class="cls-1" points="23.37 5.06 13.66 5.06 14.94 6.33 22.1 6.33 23.37 5.06"/><polygon class="cls-1" points="30.69 22.03 31.96 23.3 31.96 13.67 30.69 14.95 30.69 22.03"/><polygon class="cls-1" points="13.72 31.91 23.27 31.91 22 30.64 14.99 30.64 13.72 31.91"/><path class="cls-1" d="M8.56,3.6l8.13,8.12h0L8.57,3.6Z"/><polygon class="cls-1" points="13.67 14.73 6.55 7.6 4.75 7.6 12.77 15.63 13.67 14.73"/><path class="cls-1" d="M35.76,27.09,37,28.36V8.6L35.76,9.87Z"/><path class="cls-1" d="M18.53,15.67l-.9.9-2,2,2.86,2.85,2.85-2.85Zm0,3.91-1.06-1,1.06-1.06,1,1.06Z"/><path class="cls-1" d="M37,6.8V2.87h0V1.06h0V0H30.25c-4.33,4.41-9.31,9.32-13.68,13.71L7.65,4.8V6.6l8,8-1.06,1.06-1.95,2L1.29,6.26v-5h5L16.69,11.72l.9-.9C14.24,7.46,10.09,3.34,6.78,0H0V6.76L.19,7h0L2.56,9.33h0l10.1,10.09h0l1.05,1.05L4.83,29.37h1.8l8-8,3,3h0l-9,9h0c-.58.59-1.8,1.8-2.39,2.39h-5v-5c2.91-2.9,7.48-7.48,10.43-10.43l-.9-.9L2.56,27.72h0L.19,30.09,0,30.28V37H6.8l3.85-3.85h0l1.27-1.28h0l1.28-1.27h0l4.41-4.41h0l1.83-1.84h0l1.05-1.06,8.94,8.93v-1.8l-8-8,1.06-1.06h0l.9-.9h0l1.06-1.05L35.76,30.79v5h-5L28.4,33.37h0L20.33,25.3l-.9.9,7,7h0l1.27,1.27h0L30.27,37h6.78V30.28L23.34,16.57l9-9H30.5l-8.06,8.07-3-3L28.49,3.6h0l2.33-2.33h4.95v5L25.33,16.69l.9.9h0l4.46-4.45h0L32,11.87h0l1.27-1.28h0l1.28-1.27h0l1.25-1.26h0Zm-15.5,9.77L22,17l1.5,1.51-5,5-5-5,5-5Z"/><path class="cls-1" d="M18.53,15.67l-.9.9-2,2,2.86,2.85,2.85-2.85Zm0,3.91-1.06-1,1.06-1.06,1,1.06Z"/><polygon class="cls-1" points="9.87 35.76 8.6 37.03 28.39 37.03 27.12 35.76 9.87 35.76"/><polygon class="cls-1" points="27.17 1.27 28.45 0 8.59 0 9.86 1.27 27.17 1.27"/><path class="cls-1" d="M1.29,27.07V9.93L0,8.64V28.36l1.27-1.27Z"/><path class="cls-1" d="M30.69,30.64v3.82h3.82V30.64Zm2.54,2.55H32V31.91h1.27Z"/><path class="cls-1" d="M2.56,2.51V6.33H6.38V2.51ZM5.11,5.06H3.83V3.79H5.11Z"/><polygon class="cls-1" points="2.56 11.2 2.56 25.8 3.83 24.54 3.83 12.48 2.56 11.2"/><polygon class="cls-1" points="5.11 13.75 5.11 23.27 6.38 22 6.38 15.02 5.11 13.75"/><path class="cls-1" d="M30.69,2.51V6.33h3.82V2.51Zm2.53,2.55H32V3.79h1.26Z"/><polygon class="cls-1" points="23.35 22.29 30.42 29.37 32.22 29.37 24.25 21.39 23.35 22.29"/><path class="cls-1" d="M18.53,15.67l-.9.9-2,2,2.86,2.85,2.85-2.85Zm0,3.91-1.06-1,1.06-1.06,1,1.06Z"/><rect class="cls-1" x="17.78" y="27.42" width="1.49" height="1.49" transform="translate(-14.49 21.35) rotate(-45)"/><rect class="cls-1" x="27.4" y="17.71" width="1.49" height="1.49" transform="translate(-4.81 25.31) rotate(-45)"/><rect class="cls-1" x="17.7" y="8.09" width="1.49" height="1.49" transform="translate(-0.85 15.63) rotate(-45)"/><rect class="cls-1" x="8.07" y="17.79" width="1.49" height="1.49" transform="translate(-10.53 11.67) rotate(-45)"/><polygon class="cls-1" points="22.31 13.68 29.41 6.58 29.41 4.78 21.41 12.78 22.31 13.68"/><polygon class="cls-1" points="14.73 23.38 7.65 30.46 7.65 32.26 15.63 24.27 14.73 23.38"/><path class="cls-1" d="M2.56,30.64v3.82H6.38V30.64Zm2.55,2.55H3.83V31.91H5.11Z"/><text class="cls-2" transform="translate(45.6 22.12)">Xlbox</text><text class="cls-3" transform="translate(45.6 33.79) rotate(-0.02)">SERVICES GMBH</text></g></g></svg>