<svg xmlns="http://www.w3.org/2000/svg" viewBox="0 0 109.14 110.86"><defs><style>.cls-1{fill:#8bc53f;}</style></defs><title>Asset 8</title><g id="Layer_2" data-name="Layer 2"><g id="home"><path class="cls-1" d="M27.11,59l-.64,18.7-7-4.8-7,4,1.45-20-10-1.37v42l36.75,4.18V60.49L27.11,59ZM88.29,5.37a1.53,1.53,0,0,1,1.09.2,1.54,1.54,0,0,1,1,1.41l.31,43.29,16.14,2.12h0a1.82,1.82,0,0,1,2,1.6l.32,44.38a1.56,1.56,0,0,1-.74,1.38L90.27,110.56a1.58,1.58,0,0,1-.92.3l-.24,0-47-5.23-.33,0-40.3-5.18A1.53,1.53,0,0,1,0,98.85V53.72H0a1.52,1.52,0,0,1,.91-1.44l21.22-9.34V12h0A1.52,1.52,0,0,1,23,10.5L46.63.13h0A1.56,1.56,0,0,1,47.44,0L88.29,5.37Zm.89,47.78L75,61.62l14.08,1.79,13.49-8.5L89.18,53.15ZM22.13,50.2V46.28l-15,6.61L15.72,54l6.41-3.79ZM72.38,19.7V59.62l13.55-8.08,1.65-1.4-.29-39.83L72.38,19.7ZM68.51,60.61V19.31L49.26,16.75l-.65,19.17-7-4.8-7.05,4,1.46-20L25.18,13.67v42l43.33,4.92ZM66.15,5.55,51.36,14,70.6,16.4,84.09,7.91,66.15,5.55ZM37.86,12.22,52.2,3.71l-4.72-.62-18.25,8,8.63,1.11Zm53,54.48v39.93l15.2-9.07-.3-40.25L90.87,66.7ZM87,107.61V66.32L67.75,63.75l-.66,19.17L60,78.12l-7,4,1.45-20-10-1v42L87,107.61Z"/></g></g></svg>