<svg xmlns="http://www.w3.org/2000/svg" viewBox="0 0 164 164"><defs><style>.cls-1,.cls-2,.cls-3{fill:#8bc53f;}.cls-1{fill-rule:evenodd;}.cls-3{opacity:0;}</style></defs><title>Asset 19</title><g id="Layer_2" data-name="Layer 2"><g id="home"><path class="cls-1" d="M130.79,65l-16.56-.09V53.78a6,6,0,0,0-6-6H25.48a6,6,0,0,0-6,6,1.63,1.63,0,1,0,3.26,0,2.71,2.71,0,0,1,.81-1.94A2.75,2.75,0,0,1,25.48,51h82.74a2.75,2.75,0,0,1,1.94.82,2.71,2.71,0,0,1,.81,1.94v51h-46a1.63,1.63,0,0,0,0,3.26H112.6a1.63,1.63,0,0,0,1.63-1.63v-1.85h9.84c.74-17,25.1-19.31,27.58,0H157l-1.65-17.7-17.56-6.73-7-15.15ZM9.44,82.34C8.09,82.34,7,81.6,7,80.7s1.1-1.64,2.44-1.64h22c1.36,0,2.44.73,2.44,1.64s-1.09,1.64-2.44,1.64Zm5-8.83a1.64,1.64,0,1,1,0-3.26h17a1.64,1.64,0,1,1,0,3.26Zm2.33-8.82a1.64,1.64,0,1,1,0-3.26H31.44a1.64,1.64,0,1,1,0,3.26ZM31.37,104.8a1.63,1.63,0,0,1,0,3.26H25.48a5.9,5.9,0,0,1-4.24-1.85,6.29,6.29,0,0,1-1.77-4.32v-12a1.63,1.63,0,1,1,3.26,0v12a3,3,0,0,0,.85,2.07,2.62,2.62,0,0,0,1.89.85h5.9ZM47.94,94.15a11,11,0,1,0,11.05,11,11,11,0,0,0-11.05-11Zm0,6.8a4.25,4.25,0,1,0,4.25,4.24A4.25,4.25,0,0,0,47.94,101Zm89.89-6.8a11,11,0,1,0,11,11,11.05,11.05,0,0,0-11-11Zm0,6.8a4.25,4.25,0,1,0,4.24,4.24,4.25,4.25,0,0,0-4.24-4.24Zm-11.3-31.26-8.23-.09V80.18h13.79l-5.56-10.49Z"/><path class="cls-2" d="M71.37,77.12l-.23,6.81-2.57-1.75L66,83.63l.53-7.3-3.63-.5v15.3l13.37,1.52v-15l-4.91-.55ZM93.64,57.6a.56.56,0,0,1,.4.08.54.54,0,0,1,.34.51L94.5,74l5.87.77h0a.56.56,0,0,1,.4.07.57.57,0,0,1,.35.51l.11,16.16a.56.56,0,0,1-.27.5l-6.6,3.93A.55.55,0,0,1,94,96h-.09L76.82,94.09l-.12,0L62,92.19a.57.57,0,0,1-.53-.56V75.2h0a.55.55,0,0,1,.34-.52l7.72-3.4V60h0a.56.56,0,0,1,.33-.53l8.59-3.77h0a.58.58,0,0,1,.29-.05l14.87,2ZM94,75,88.8,78.08l5.13.65,4.91-3.09L94,75ZM69.56,73.92V72.5l-5.48,2.4,3.14.4,2.34-1.38Zm18.29-11.1V77.35l4.93-2.94.6-.51-.1-14.5-5.43,3.42ZM86.44,77.71v-15l-7-.94-.24,7L76.63,67l-2.56,1.44.53-7.29-3.93-.51v15.3l15.77,1.79Zm-.86-20L80.2,60.73l7,.89,4.91-3.09-6.53-.86ZM75.29,60.1,80.51,57l-1.72-.23-6.65,2.92,3.15.41ZM94.58,79.93V94.46l5.53-3.3L100,76.51l-5.43,3.42ZM93.17,94.82v-15l-7-.93-.23,7-2.57-1.74L80.8,85.53l.52-7.29-3.63-.36v15.3l15.48,1.64Z"/><rect class="cls-3" width="164" height="164"/></g></g></svg>